<svg xmlns="http://www.w3.org/2000/svg" viewBox="0 0 411.1 101.0" width="411" height="101" role="img" aria-label="Bob Wade"><g transform="translate(6.0 0)"><g transform="translate(-11.5 4.5)" fill="none" stroke="#0c0d0e" stroke-width="9" stroke-linecap="round" stroke-linejoin="round"><path d="M 16 0 L 16 92"/><path d="M 16 46 C 58 46 58 92 16 92"/><path d="M 70 46 L 79 92 L 90 64 L 101 92 L 110 46"/></g><g transform="translate(133.0 96.5)" fill="#0c0d0e"><path d="M10.58 -39.35128358208955V-42.32H21.09683582089552Q25.739402985074626 -42.32 28.629164179104478 -41.00934328358208Q31.518925373134326 -39.698686567164174 32.86116417910448 -37.4405671641791Q34.203402985074625 -35.18244776119403 34.203402985074625 -32.340059701492535Q34.203402985074625 -28.423880597014925 31.64525373134328 -25.739402985074626Q29.087104477611938 -23.054925373134328 24.697194029850746 -22.64435820895522L24.791940298507463 -23.118089552238803Q30.318805970149253 -22.802268656716418 33.50859701492537 -19.959880597014923Q36.69838805970149 -17.11749253731343 36.69838805970149 -12.759164179104477Q36.69838805970149 -9.095641791044775 35.08770149253731 -6.205880597014925Q33.47701492537313 -3.3161194029850742 30.06614925373134 -1.6580597014925371Q26.65528358208955 0.0 21.191582089552238 0.0H10.611582089552238V-2.9687164179104477H20.87576119402985Q24.128716417910447 -2.9687164179104477 26.465791044776118 -3.9477611940298507Q28.80286567164179 -4.926805970149253 30.06614925373134 -6.995432835820895Q31.329432835820892 -9.064059701492537 31.329432835820892 -12.285432835820895Q31.329432835820892 -14.843582089552237 30.255641791044773 -16.801671641791042Q29.181850746268655 -18.75976119402985 26.9395223880597 -19.86513432835821Q24.697194029850746 -20.970507462686566 21.16 -20.970507462686566H10.58V-23.939223880597012H20.68626865671642Q24.60244776119403 -23.939223880597012 26.876358208955224 -25.928895522388057Q29.150268656716417 -27.918567164179102 29.150268656716417 -31.92949253731343Q29.150268656716417 -34.14023880597015 28.139641791044774 -35.79829850746269Q27.129014925373134 -37.45635820895522 25.07617910447761 -38.40382089552239Q23.023343283582086 -39.35128358208955 19.896716417910447 -39.35128358208955ZM2.684477611940298 0.0V-1.2317014925373133L7.674447761194029 -2.873970149253731V-39.446029850746264L2.684477611940298 -41.08829850746268V-42.32H12.727582089552238V0.0Z"/><path d="M55.52131343283581 -1.8001791044776119Q57.88997014925373 -1.8001791044776119 59.75331343283582 -2.9529253731343283Q61.61665671641791 -4.105671641791044 62.69044776119402 -6.521701492537313Q63.76423880597014 -8.937731343283582 63.76423880597014 -12.696Q63.76423880597014 -16.738507462686567 62.70623880597014 -19.501940298507463Q61.64823880597014 -22.265373134328357 59.75331343283581 -23.686567164179102Q57.85838805970148 -25.107761194029848 55.30023880597014 -25.107761194029848Q52.931582089552236 -25.107761194029848 51.06823880597015 -23.955014925373135Q49.20489552238806 -22.802268656716418 48.131104477611935 -20.386238805970148Q47.05731343283581 -17.970208955223878 47.05731343283581 -14.211940298507463Q47.05731343283581 -10.201014925373133 48.11531343283581 -7.421791044776119Q49.17331343283581 -4.642567164179104 51.08402985074626 -3.221373134328358Q52.99474626865671 -1.8001791044776119 55.52131343283581 -1.8001791044776119ZM55.331820895522384 0.631641791044776Q51.352477611940294 0.631641791044776 48.304805970149246 -1.1211641791044775Q45.257134328358205 -2.873970149253731 43.551701492537305 -5.984805970149253Q41.84626865671641 -9.095641791044775 41.84626865671641 -13.138149253731342Q41.84626865671641 -17.306985074626866 43.6306567164179 -20.559940298507463Q45.415044776119394 -23.812895522388057 48.49429850746267 -25.676238805970147Q51.57355223880596 -27.539582089552237 55.48973134328358 -27.539582089552237Q59.50065671641791 -27.539582089552237 62.53253731343283 -25.786776119402983Q65.56441791044776 -24.03397014925373 67.26985074626865 -20.938925373134325Q68.97528358208955 -17.843880597014923 68.97528358208955 -13.769791044776118Q68.97528358208955 -9.600955223880597 67.19089552238805 -6.348Q65.40650746268656 -3.0950447761194027 62.327253731343276 -1.2317014925373133Q59.24799999999999 0.631641791044776 55.331820895522384 0.631641791044776Z"/><path d="M77.88143283582087 -1.8001791044776119H81.19755223880595L76.23916417910446 0.5053134328358209L75.22853731343282 0.12632835820895522L75.92334328358207 -6.474328358208955V-38.46698507462686Q75.51277611940297 -38.97229850746268 74.84955223880596 -39.4776119402985Q74.18632835820894 -39.98292537313433 73.23886567164178 -40.504029850746264Q72.29140298507461 -41.025134328358206 71.0597014925373 -41.530447761194026V-42.162089552238804L80.21850746268655 -44.81498507462686H80.85014925373133L80.53432835820894 -39.76185074626866V-8.085014925373134Q80.53432835820894 -6.379582089552239 81.45020895522387 -4.989970149253731Q82.36608955223879 -3.6003582089552237 84.0873134328358 -2.7950149253731342Q85.80853731343282 -1.9896716417910447 88.17719402985074 -1.9896716417910447Q90.86167164179103 -1.9896716417910447 92.74080597014924 -3.379283582089552Q94.61994029850744 -4.76889552238806 95.6305671641791 -7.327044776119402Q96.64119402985074 -9.885194029850746 96.64119402985074 -13.327641791044774Q96.64119402985074 -16.801671641791042 95.52002985074625 -19.217701492537312Q94.39886567164177 -21.633731343283582 92.40919402985074 -22.881223880597013Q90.41952238805969 -24.128716417910447 87.79820895522386 -24.128716417910447Q85.93486567164177 -24.128716417910447 84.26101492537312 -23.81289552238806Q82.58716417910446 -23.497074626865672 81.15017910447759 -22.865432835820897Q79.71319402985073 -22.23379104477612 78.48149253731341 -21.254746268656714V-23.497074626865672Q80.18692537313432 -24.53928358208955 81.73444776119402 -25.297253731343282Q83.28197014925371 -26.055223880597012 84.67158208955222 -26.544746268656716Q86.06119402985072 -27.034268656716417 87.35605970149251 -27.286925373134327Q88.65092537313431 -27.539582089552237 89.81946268656715 -27.539582089552237Q93.79880597014923 -27.539582089552237 96.49907462686565 -25.92889552238806Q99.19934328358207 -24.31820895522388 100.58895522388057 -21.460029850746267Q101.97856716417908 -18.601850746268656 101.97856716417908 -14.843582089552237Q101.97856716417908 -11.36955223880597 100.8574029850746 -8.527164179104478Q99.73623880597013 -5.684776119402985 97.68340298507461 -3.6319402985074625Q95.63056716417908 -1.5791044776119403 92.86713432835819 -0.47373134328358213Q90.1037014925373 0.631641791044776 86.81916417910446 0.631641791044776Q85.49271641791043 0.631641791044776 84.10310447761192 0.3789850746268656Q82.71349253731341 0.12632835820895522 81.18176119402983 -0.39477611940298507Q79.65002985074625 -0.9158805970149253 77.88143283582087 -1.8001791044776119Z"/><path d="M149.0990447761194 -37.330029850746264 134.35020895522388 0.631641791044776H132.86585074626865L122.8227462686567 -39.38286567164179L118.14859701492536 -41.08829850746268V-42.32H133.4659104477612V-41.08829850746268L128.00220895522386 -39.446029850746264L135.99247761194027 -7.105970149253731H134.76077611940298L148.30949253731342 -42.95164179104477H149.8570149253731L164.70059701492536 -5.842686567164178L162.17402985074625 -4.674149253731343L170.00638805970146 -39.446029850746264L164.60585074626863 -41.08829850746268V-42.32H177.5860895522388V-41.08829850746268L173.00668656716417 -39.446029850746264L163.40573134328358 0.631641791044776H161.92137313432835L147.07779104477612 -36.25623880597015Z"/><path d="M196.50376119402983 -17.14907462686567 197.00907462686564 -14.938328358208954Q193.28238805970147 -14.085611940298506 190.91373134328356 -13.21710447761194Q188.54507462686564 -12.348597014925373 187.2186268656716 -11.432716417910449Q185.89217910447758 -10.516835820895523 185.37107462686566 -9.49041791044776Q184.84997014925372 -8.463999999999999 184.84997014925372 -7.232298507462686Q184.84997014925372 -5.084716417910448 186.12904477611937 -3.9477611940298507Q187.40811940298505 -2.8108059701492536 189.23988059701492 -2.8108059701492536Q190.72423880597012 -2.8108059701492536 191.95594029850744 -3.568776119402985Q193.18764179104477 -4.326746268656716 193.92982089552237 -5.55844776119403Q194.67199999999997 -6.790149253731343 194.67199999999997 -8.211343283582089V-19.580895522388058Q194.67199999999997 -21.854805970149254 193.50346268656713 -23.21283582089552Q192.3349253731343 -24.57086567164179 189.65044776119402 -24.57086567164179Q188.70298507462684 -24.57086567164179 187.47128358208954 -24.27083582089552Q186.23958208955221 -23.970805970149254 185.07104477611938 -23.370746268656713L186.68173134328356 -24.8235223880597Q186.58698507462685 -23.939223880597012 186.41328358208955 -23.054925373134324Q186.23958208955221 -22.17062686567164 186.00271641791042 -21.475820895522386Q185.76585074626863 -20.78101492537313 185.41844776119402 -20.402029850746267Q184.91313432835818 -19.86513432835821 184.15516417910447 -19.6124776119403Q183.39719402985074 -19.359820895522386 182.639223880597 -19.359820895522386Q181.66017910447758 -19.359820895522386 181.09170149253728 -19.81776119402985Q180.523223880597 -20.275701492537312 180.523223880597 -20.970507462686566Q180.523223880597 -21.949552238805968 181.48647761194027 -23.03913432835821Q182.44973134328356 -24.128716417910447 184.0446268656716 -25.09197014925373Q185.63952238805967 -26.055223880597012 187.59761194029846 -26.655283582089552Q189.55570149253728 -27.25534328358209 191.5769552238806 -27.25534328358209Q194.32459701492536 -27.25534328358209 196.03002985074625 -26.418417910447758Q197.73546268656713 -25.58149253731343 198.509223880597 -23.955014925373135Q199.28298507462685 -22.328537313432836 199.28298507462685 -19.959880597014923V-5.526865671641791Q199.28298507462685 -4.5478208955223876 199.567223880597 -3.900388059701492Q199.85146268656715 -3.2529552238805968 200.4041492537313 -2.9213432835820896Q200.9568358208955 -2.589731343283582 201.77797014925372 -2.589731343283582Q202.5043582089552 -2.589731343283582 203.34128358208955 -2.873970149253731Q204.17820895522385 -3.1582089552238806 204.96776119402983 -3.6319402985074625V-2.1791641791044776Q203.67289552238805 -0.7579701492537313 202.23591044776117 -0.09474626865671643Q200.7989253731343 0.5684776119402984 199.567223880597 0.5684776119402984Q198.05128358208952 0.5684776119402984 196.9617014925373 -0.11053731343283585Q195.87211940298505 -0.7895522388059701 195.30364179104475 -2.068626865671642Q194.73516417910446 -3.3477014925373134 194.73516417910446 -5.084716417910448L194.9246567164179 -5.400537313432835Q194.51408955223877 -3.6319402985074625 193.3929253731343 -2.2739104477611938Q192.27176119402984 -0.9158805970149253 190.708447761194 -0.14211940298507464Q189.14513432835818 0.631641791044776 187.3765373134328 0.631641791044776Q184.21832835820894 0.631641791044776 182.1654925373134 -1.1369552238805969Q180.1126567164179 -2.90555223880597 180.1126567164179 -6.221671641791044Q180.1126567164179 -7.990268656716418 180.82325373134324 -9.443044776119402Q181.53385074626863 -10.895820895522387 183.33402985074625 -12.17489552238806Q185.13420895522387 -13.453970149253731 188.33979104477612 -14.669880597014924Q191.54537313432834 -15.885791044776118 196.50376119402983 -17.14907462686567Z"/><path d="M228.6227462686567 -18.82292537313433Q228.6227462686567 -21.444238805970148 226.7594029850746 -23.181253731343283Q224.8960597014925 -24.918268656716418 221.2957014925373 -24.918268656716418Q218.48489552238803 -24.918268656716418 216.5110149253731 -23.52865671641791Q214.53713432835818 -22.139044776119402 213.52650746268654 -19.596686567164177Q212.5158805970149 -17.054328358208956 212.5158805970149 -13.580298507462686Q212.5158805970149 -10.106268656716416 213.63704477611938 -7.690238805970148Q214.75820895522386 -5.27420895522388 216.7478805970149 -4.026716417910448Q218.73755223880593 -2.779223880597015 221.35886567164175 -2.779223880597015Q223.79068656716416 -2.779223880597015 226.017223880597 -3.5529850746268656Q228.24376119402982 -4.326746268656716 230.35976119402983 -5.969014925373134V-3.7266865671641787Q228.08585074626862 -2.3686567164179104 226.50674626865668 -1.5001492537313432Q224.92764179104475 -0.631641791044776 223.72752238805967 -0.1737014925373134Q222.5274029850746 0.2842388059701492 221.50098507462684 0.45794029850746265Q220.47456716417906 0.631641791044776 219.33761194029847 0.631641791044776Q215.38985074626862 0.631641791044776 212.6737910447761 -0.979044776119403Q209.95773134328357 -2.589731343283582 208.56811940298508 -5.463701492537313Q207.17850746268655 -8.337671641791044 207.17850746268655 -12.064358208955223Q207.17850746268655 -15.696298507462686 208.3628358208955 -18.5544776119403Q209.54716417910444 -21.41265671641791 211.61579104477607 -23.418119402985074Q213.68441791044773 -25.423582089552237 216.3531044776119 -26.481582089552237Q219.02179104477608 -27.539582089552237 221.99050746268654 -27.539582089552237Q223.506447761194 -27.539582089552237 224.959223880597 -27.286925373134327Q226.41199999999998 -27.034268656716417 227.95952238805967 -26.51316417910448Q229.5070447761194 -25.992059701492536 231.27564179104473 -25.107761194029848L228.6227462686567 -23.307582089552238V-39.35128358208955Q228.24376119402982 -39.82501492537313 227.64370149253728 -40.23558208955224Q227.04364179104476 -40.64614925373134 226.2698805970149 -41.04092537313433Q225.49611940298504 -41.43570149253731 224.5802388059701 -41.81468656716417V-42.383164179104476L232.91791044776116 -44.81498507462686H233.5179701492537L233.23373134328355 -39.698686567164174V-4.421492537313433Q233.5179701492537 -4.105671641791044 233.9917014925373 -3.805641791044776Q234.46543283582088 -3.505611940298507 235.03391044776117 -3.221373134328358Q235.60238805970147 -2.937134328358209 236.17086567164176 -2.747641791044776Q236.73934328358206 -2.5581492537313433 237.2446567164179 -2.4949850746268654V-1.5475223880597013L229.6965373134328 0.5053134328358209H229.06489552238804L228.6227462686567 -4.295164179104478Z"/><path d="M253.28835820895517 -27.539582089552237Q256.35182089552234 -27.539582089552237 258.5941492537313 -26.18155223880597Q260.83647761194027 -24.8235223880597 262.17871641791044 -22.217999999999996Q263.52095522388055 -19.612477611940296 263.83677611940294 -15.85420895522388H244.5085373134328L244.57170149253727 -17.970208955223878L260.80489552238805 -18.72817910447761L258.6573134328358 -17.401731343283583Q258.4362388059701 -19.675641791044775 257.75722388059694 -21.39686567164179Q257.07820895522383 -23.118089552238803 255.87808955223875 -24.081343283582086Q254.6779701492537 -25.044597014925372 252.8146268656716 -25.044597014925372Q250.6038805970149 -25.044597014925372 248.93002985074622 -23.828686567164176Q247.25617910447758 -22.612776119402984 246.32450746268654 -20.275701492537312Q245.3928358208955 -17.93862686567164 245.3928358208955 -14.55934328358209Q245.3928358208955 -11.053731343283582 246.76665671641788 -8.495582089552238Q248.14047761194027 -5.937432835820895 250.6038805970149 -4.547820895522388Q253.06728358208952 -3.1582089552238806 256.35182089552234 -3.1582089552238806Q257.5519402985074 -3.1582089552238806 258.7046865671641 -3.474029850746269Q259.8574328358209 -3.7898507462686566 260.99438805970146 -4.421492537313433Q262.13134328358205 -5.053134328358208 263.20513432835816 -5.969014925373134L263.99468656716414 -5.1162985074626866Q262.41558208955223 -3.1582089552238806 260.77331343283583 -1.879134328358209Q259.1310447761194 -0.6000597014925373 257.2992835820895 0.015791044776119367Q255.46752238805965 0.631641791044776 253.35152238805966 0.631641791044776Q249.68799999999996 0.631641791044776 246.82982089552235 -1.1527462686567165Q243.97164179104473 -2.937134328358209 242.3293731343283 -6.032179104477612Q240.6871044776119 -9.127223880597015 240.6871044776119 -13.074985074626865Q240.6871044776119 -17.054328358208956 242.20304477611938 -20.33886567164179Q243.71898507462683 -23.623402985074627 246.5455820895522 -25.58149253731343Q249.37217910447757 -27.539582089552237 253.28835820895517 -27.539582089552237Z"/></g></g></svg>
